<?xml version="1.0" encoding="UTF-8"?>
<!DOCTYPE svg PUBLIC "-//W3C//DTD SVG 1.1//EN" "http://www.w3.org/Graphics/SVG/1.1/DTD/svg11.dtd">
<!-- Creator: CorelDRAW 2020 (64-Bit) -->
<svg xmlns="http://www.w3.org/2000/svg" xml:space="preserve" width="67.8608mm" height="13.1022mm" version="1.1" style="shape-rendering:geometricPrecision; text-rendering:geometricPrecision; image-rendering:optimizeQuality; fill-rule:evenodd; clip-rule:evenodd"
viewBox="0 0 6706.68 1294.89"
 xmlns:xlink="http://www.w3.org/1999/xlink"
 xmlns:xodm="http://www.corel.com/coreldraw/odm/2003">
 <defs>
  <style type="text/css">
   <![CDATA[
    .str0 {stroke:#1F2C55;stroke-width:74.12;stroke-miterlimit:22.9256}
    .fil0 {fill:#1F2C55}
    .fil1 {fill:white}
    .fil3 {fill:#1F2C55;fill-rule:nonzero}
    .fil2 {fill:white;fill-rule:nonzero}
   ]]>
  </style>
 </defs>
 <g id="Слой_x0020_1">
  <metadata id="CorelCorpID_0Corel-Layer"/>
  <g id="_843701280">
   <path class="fil0 str0" d="M4057.82 1257.83l-3774.18 0c-135.61,0 -246.57,-103.81 -246.57,-230.7l0 -759.38c0,-126.89 110.96,-230.7 246.57,-230.7l3774.18 0c0,1220.78 0,1220.78 0,1220.78z"/>
   <path class="fil1 str0" d="M4057.82 37.05l2365.22 0c135.61,0 246.57,103.81 246.57,230.7l0 759.38c0,126.89 -110.96,230.7 -246.57,230.7l-2365.22 0c0,0 0,0 0,-1220.78z"/>
   <path class="fil2" d="M235.6 388.14l601.23 0 0 145.03 -601.23 0 0 -145.03zm201.84 188.85l202.11 0 0 329.74 -202.11 0 0 -329.74zm476.24 -188.85l610.63 0 0 145.03 -610.63 0 0 -145.03zm0 188.98l460.32 0 0 140.63 -258.48 0 0 43.95 408.79 0 0 145.03 -610.63 0 0 -329.61zm912.02 -188.98l0 188.98 192.32 0 0 140.63 -192.32 0 0 188.98 -202.1 0 0 -145.16c0,-23.68 9.26,-46.51 27.65,-68.72 18.53,-22.22 35.89,-37.37 52.19,-45.41 -9.13,-3.79 -20.09,-11.48 -32.61,-22.96 -12.66,-11.36 -23.62,-25.14 -33.14,-41.26 -9.4,-16.11 -14.09,-32.71 -14.09,-49.92l0 -145.16 202.1 0zm239.3 0l0 518.59 202.11 0 0 -145.16c0,-12.93 -2.87,-25.63 -8.75,-38.09 -5.87,-12.57 -13.05,-23.92 -21.65,-34.05 -8.48,-10.14 -17.49,-19.04 -26.89,-26.62 -9.52,-7.68 -16.95,-12.81 -22.55,-15.37 9.12,-3.79 20.08,-11.48 32.6,-22.96 12.66,-11.36 23.62,-25.14 33.15,-41.26 9.4,-16.11 14.09,-32.71 14.09,-49.92l0 -145.16 -202.11 0zm304.79 0l202.24 0 0 518.59 -202.24 0 0 -518.59zm460.18 0l202.12 0 0 518.59 -202.12 0 0 -202.17 -211.37 0 0 -153.81 211.37 0 0 -162.61zm1005.33 145.16c0,-19.04 -3.65,-37.5 -11.1,-55.42 -7.43,-17.83 -17.74,-33.45 -31.18,-46.64 -13.3,-13.18 -29.75,-23.68 -49.05,-31.51 -19.44,-7.68 -40.71,-11.59 -63.81,-11.59l-389.59 0c-30.54,0 -57.55,6.59 -81.16,19.66 -23.62,13.18 -41.76,30.77 -54.68,52.98 -12.91,22.1 -19.3,46.39 -19.3,72.52l0 228.27c0,46.88 13.7,82.89 41.22,107.79 27.53,24.91 65.5,37.37 113.92,37.37l389.59 0c32.1,0 59.63,-5.49 82.72,-16.48 23.11,-10.98 40.85,-27.23 53.5,-48.96 12.66,-21.72 18.93,-48.34 18.93,-79.72l0 -228.27zm-498.03 0l296.19 0 0 228.16 -296.19 0 0 -228.16z"/>
   <path class="fil3" d="M4302.8 388.15l601.22 0 0 145.02 -601.22 0 0 -145.02zm201.84 188.85l202.11 0 0 329.73 -202.11 0 0 -329.73zm476.24 -188.85l610.62 0 0 145.02 -610.62 0 0 -145.02zm0 188.97l460.31 0 0 140.64 -258.48 0 0 43.95 408.79 0 0 145.02 -610.62 0 0 -329.61zm706.77 -188.97l201.85 0 0 518.58 -201.85 0 0 -518.58zm446.1 162.72l-197.28 0 0 153.82 197.28 0 0 202.04 206.8 0 0 -138.43c0,-35.28 -8.87,-64.82 -26.74,-88.63 -17.88,-23.93 -39.54,-40.65 -64.98,-50.41 26.22,-10.51 48.15,-26.61 65.49,-48.35 17.49,-21.73 26.23,-49.32 26.23,-83.01l0 -109.75 -206.8 0 0 162.72z"/>
  </g>
 </g>
</svg>
